<svg xmlns="http://www.w3.org/2000/svg" version="1.1" xmlns:xlink="http://www.w3.org/1999/xlink"
    width="1000" height="623" viewBox="0 0 1000 623">
    <g transform="matrix(1,0,0,1,-0.6060606060606233,0.2522267206477409)">
        <svg viewBox="0 0 396 247" data-background-color="#ffffff"
            preserveAspectRatio="xMidYMid meet" height="623" width="1000"
            xmlns="http://www.w3.org/2000/svg" xmlns:xlink="http://www.w3.org/1999/xlink">
            <g id="tight-bounds" transform="matrix(1,0,0,1,0.2400000000000091,-0.09999999999999432)">
                <svg viewBox="0 0 395.52 247.2" height="247.2" width="395.52">
                    <g>
                        <svg></svg>
                    </g>
                    <g>
                        <svg viewBox="0 0 395.52 247.2" height="247.2" width="395.52">
                            <g transform="matrix(1,0,0,1,39.55199999999999,90.13185216473073)">
                                <svg viewBox="0 0 316.416 66.93629567053853"
                                    height="66.93629567053853" width="316.416">
                                    <g>
                                        <svg viewBox="0 0 316.416 66.93629567053853"
                                            height="66.93629567053853" width="316.416">
                                            <g>
                                                <svg viewBox="0 0 316.416 66.93629567053853"
                                                    height="66.93629567053853" width="316.416">
                                                    <g>
                                                        <svg viewBox="0 0 316.416 66.93629567053853"
                                                            height="66.93629567053853"
                                                            width="316.416">
                                                            <g id="textblocktransform">
                                                                <svg
                                                                    viewBox="0 0 316.416 66.93629567053853"
                                                                    height="66.93629567053853"
                                                                    width="316.416" id="textblock">
                                                                    <g>
                                                                        <svg
                                                                            viewBox="0 0 316.416 66.93629567053853"
                                                                            height="66.93629567053853"
                                                                            width="316.416">
                                                                            <g
                                                                                transform="matrix(1,0,0,1,0,0)">
                                                                                <svg width="316.416"
                                                                                    viewBox="-2 -45 285.08 61.1"
                                                                                    height="66.93629567053853"
                                                                                    data-palette-color="#89939e">
                                                                                    <path
                                                                                        d="M6.1-3.85L6.1-32.95 2-33.65 2-37.15 18.85-37.15 18.85-33.65 14.65-32.95 14.65-3.8 18.85-3.25 18.85 0 2.05 0 2.05-3.3 6.1-3.85ZM25.75-3.75L25.75-22.55 22.8-23.45 22.8-27.35 31.9-28.45 32.05-28.45 33.35-27.4 33.35-25.55 33.3-24.4Q35.05-26.05 37.75-27.2 40.45-28.35 43.4-28.35L43.4-28.35Q46.4-28.35 48.12-27.28 49.85-26.2 50.62-23.85 51.4-21.5 51.4-17.45L51.4-17.45 51.4-3.75 54.2-3.35 54.2 0 40.6 0 40.6-3.3 43.05-3.75 43.05-17.4Q43.05-19.8 42.72-21.13 42.4-22.45 41.6-23.05 40.8-23.65 39.3-23.65L39.3-23.65Q37-23.65 34.1-21.5L34.1-21.5 34.1-3.75 36.85-3.3 36.85 0 23 0 23-3.3 25.75-3.75ZM85.7-14.8Q85.7-10.65 83.97-7.15 82.25-3.65 78.87-1.55 75.5 0.55 70.75 0.55L70.75 0.55Q69.95 0.55 69.02 0.4 68.1 0.25 67.6 0.05L67.6 0.05 67.75 4.1 67.75 8.35 72.05 9 72.05 12.1 56.7 12.1 56.7 9 59.75 8.35 59.75-22.55 56.7-23.45 56.7-27.35 65.65-28.45 65.75-28.45 67.1-27.4 67.1-24.7Q68.25-26.25 70.32-27.38 72.4-28.5 74.85-28.5L74.85-28.5Q79.65-28.5 82.67-25.13 85.7-21.75 85.7-14.8L85.7-14.8ZM71.9-23.9Q70.6-23.9 69.45-23.38 68.3-22.85 67.75-22.1L67.75-22.1 67.75-3.8Q68.1-3.35 68.97-3.05 69.85-2.75 70.9-2.75L70.9-2.75Q73.7-2.75 75.37-5.45 77.05-8.15 77.05-14.2L77.05-14.2Q77.05-19.1 75.65-21.5 74.25-23.9 71.9-23.9L71.9-23.9ZM112.04 0.5Q110.24 0.5 109.44-0.28 108.64-1.05 108.64-2.55L108.64-2.55 108.64-3.65Q107.44-2 105.04-0.73 102.64 0.55 100.19 0.55L100.19 0.55Q95.29 0.55 93.22-1.88 91.14-4.3 91.14-10L91.14-10 91.14-23.9 88.79-24.55 88.79-27.75 98.19-28.4 98.24-28.4 99.34-27.7 99.34-9.8Q99.34-6.55 100.14-5.28 100.94-4 102.99-4L102.99-4Q105.79-4 107.69-5.9L107.69-5.9 107.69-23.9 104.59-24.65 104.59-27.75 114.49-28.4 114.64-28.4 115.84-27.7 115.84-3.45 118.49-3.45 118.49-0.25Q116.79 0.1 115.37 0.3 113.94 0.5 112.04 0.5L112.04 0.5ZM130.14 0.45Q126.84 0.45 125.27-1.07 123.69-2.6 123.69-5.8L123.69-5.8 123.69-23.6 120.64-23.6 120.64-26.5 121.64-26.9Q122.84-27.3 123.74-27.75L123.74-27.75Q124.74-28.7 125.34-30.25L125.34-30.25Q126.09-32.05 126.99-35.3L126.99-35.3 131.64-35.3 131.94-27.8 139.09-27.8 139.09-23.6 132.04-23.6 132.04-10.35Q132.04-7.6 132.19-6.5 132.34-5.4 132.77-5.08 133.19-4.75 134.34-4.75L134.34-4.75Q136.69-4.75 138.79-5.55L138.79-5.55 139.84-2.4Q138.44-1.25 135.69-0.4 132.94 0.45 130.14 0.45L130.14 0.45ZM142.24 0L142.24-3.3 144.89-3.75 144.89-22.55 141.94-23.45 141.94-27.35 151.04-28.45 151.44-28.25 152.44-26.85 152.44-24.35Q154.04-26 157.14-27.18 160.24-28.35 162.44-28.35L162.44-28.35Q165.14-28.35 166.81-27.45 168.49-26.55 169.34-24.65L169.34-24.65Q171.04-26.25 173.61-27.3 176.19-28.35 178.84-28.35L178.84-28.35Q183.24-28.35 185.16-25.8 187.09-23.25 187.09-17.45L187.09-17.45 187.09-3.75 190.09-3.3 190.09 0 176.54 0 176.54-3.3 178.79-3.75 178.79-17.25Q178.79-20.85 177.96-22.25 177.14-23.65 174.94-23.65L174.94-23.65Q172.64-23.65 170.14-21.7L170.14-21.7Q170.44-19.85 170.44-17.45L170.44-17.45 170.44-3.75 173.24-3.3 173.24 0 159.59 0 159.59-3.3 162.09-3.75 162.09-17.4Q162.09-20.95 161.31-22.3 160.54-23.65 158.39-23.65L158.39-23.65Q156.99-23.65 155.61-23.03 154.24-22.4 153.24-21.5L153.24-21.5 153.24-3.75 155.94-3.3 155.94 0 142.24 0ZM192.59-8Q192.59-12.4 197.06-14.75 201.53-17.1 208.84-17.15L208.84-17.15 208.84-18.15Q208.84-19.95 208.44-21 208.03-22.05 206.99-22.58 205.94-23.1 203.88-23.1L203.88-23.1Q201.44-23.1 199.51-22.53 197.59-21.95 195.49-21L195.49-21 193.78-24.6Q194.59-25.25 196.38-26.18 198.19-27.1 200.71-27.78 203.24-28.45 205.99-28.45L205.99-28.45Q209.99-28.45 212.26-27.4 214.53-26.35 215.51-24.15 216.49-21.95 216.49-18.15L216.49-18.15 216.49-3.3 219.09-3.3 219.09-0.15Q217.94 0.1 215.88 0.35 213.84 0.6 212.38 0.6L212.38 0.6Q210.49 0.6 209.86 0.05 209.24-0.5 209.24-2.15L209.24-2.15 209.24-3.3Q207.99-1.8 205.88-0.63 203.78 0.55 201.03 0.55L201.03 0.55Q198.69 0.55 196.76-0.48 194.84-1.5 193.71-3.43 192.59-5.35 192.59-8L192.59-8ZM204.94-4.05Q205.84-4.05 206.94-4.58 208.03-5.1 208.84-5.85L208.84-5.85 208.84-13.8Q204.94-13.8 203.06-12.4 201.19-11 201.19-8.8L201.19-8.8Q201.19-6.55 202.19-5.3 203.19-4.05 204.94-4.05L204.94-4.05ZM226.78-8.1L228.03-4.15Q228.38-3.6 229.66-3.15 230.93-2.7 232.23-2.7L232.23-2.7Q234.28-2.7 235.36-3.58 236.43-4.45 236.43-5.85L236.43-5.85Q236.43-7.35 235.03-8.33 233.63-9.3 230.43-10.7L230.43-10.7 228.53-11.55Q225.28-13 223.66-15.08 222.03-17.15 222.03-20.35L222.03-20.35Q222.03-22.65 223.38-24.48 224.73-26.3 227.28-27.35 229.83-28.4 233.28-28.4L233.28-28.4Q235.68-28.4 237.43-28.1 239.18-27.8 240.98-27.35L240.98-27.35Q242.18-27 242.78-26.95L242.78-26.95 242.78-20.15 238.33-20.15 237.03-24Q236.78-24.45 235.83-24.83 234.88-25.2 233.68-25.2L233.68-25.2Q231.78-25.2 230.68-24.38 229.58-23.55 229.58-22.15L229.58-22.15Q229.58-20.55 230.83-19.63 232.08-18.7 234.83-17.45L234.83-17.45 235.88-17Q239.93-15.3 242.23-13.33 244.53-11.35 244.53-7.9L244.53-7.9Q244.53-4.2 241.58-1.83 238.63 0.55 232.88 0.55L232.88 0.55Q230.23 0.55 228.18 0.13 226.13-0.3 223.68-1L223.68-1 222.03-1.45 222.03-8.1 226.78-8.1ZM250.43-3.75L250.43-36.1 247.03-36.75 247.03-39.8 256.98-41 257.13-41 258.58-39.95 258.58-16.6 258.43-14.15 267.83-24.05 264.13-24.6 264.13-27.75 277.73-27.75 277.73-24.6 273.63-23.95 268.23-18.8 276.48-3.75 279.08-3.3 279.08 0 265.18 0 265.18-3.3 267.43-3.75 262.48-13.65 258.43-9.45 258.53-6.9 258.53-3.75 261.43-3.3 261.43 0 247.68 0 247.68-3.3 250.43-3.75Z"
                                                                                        opacity="1"
                                                                                        transform="matrix(1,0,0,1,0,0)"
                                                                                        fill="#89939e"
                                                                                        class="undefined-text-0"
                                                                                        data-fill-palette-color="primary"
                                                                                        id="text-0"></path>
                                                                                </svg>
                                                                            </g>
                                                                        </svg>
                                                                    </g>
                                                                </svg>
                                                            </g>
                                                        </svg>
                                                    </g>
                                                </svg>
                                            </g>
                                        </svg>
                                    </g>
                                </svg>
                            </g>
                            <g mask="url(&quot;#f6ae8a10-f9c8-4a72-874e-598463dedba5&quot;)">
                                <g
                                    transform="matrix(10.216666666666667, 0, 0, 10.216666666666667, 34.29333333333332, 1)">
                                    <svg xmlns="http://www.w3.org/2000/svg"
                                        xmlns:xlink="http://www.w3.org/1999/xlink" version="1.1"
                                        x="0" y="0" viewBox="0 4 32 24"
                                        style="enable-background:new 0 0 32 32;"
                                        xml:space="preserve" height="24" width="32"
                                        class="icon-none" data-fill-palette-color="accent" id="none"><g fill="#dedede" data-fill-palette-color="accent"><path d="M29.5 24H14c-0.552 0-1-0.447-1-1s0.448-1 1-1h15.5c0.275 0 0.5-0.225 0.5-0.5v-11c0-0.276-0.225-0.5-0.5-0.5H14c-0.552 0-1-0.448-1-1s0.448-1 1-1h15.5c1.379 0 2.5 1.122 2.5 2.5v11C32 22.879 30.879 24 29.5 24z" fill="#dedede" data-fill-palette-color="accent"></path><path d="M6 24H2.5C1.122 24 0 22.879 0 21.5v-11C0 9.122 1.122 8 2.5 8H6c0.552 0 1 0.448 1 1s-0.448 1-1 1H2.5C2.224 10 2 10.224 2 10.5v11C2 21.775 2.224 22 2.5 22H6c0.552 0 1 0.447 1 1S6.552 24 6 24z" fill="#dedede" data-fill-palette-color="accent"></path><path d="M10 28c-0.552 0-1-0.447-1-1V5c0-0.552 0.448-1 1-1s1 0.448 1 1v22C11 27.553 10.552 28 10 28z" fill="#dedede" data-fill-palette-color="accent"></path><path d="M13 6H7C6.448 6 6 5.552 6 5s0.448-1 1-1h6c0.552 0 1 0.448 1 1S13.552 6 13 6z" fill="#dedede" data-fill-palette-color="accent"></path><path d="M13 28H7c-0.552 0-1-0.447-1-1s0.448-1 1-1h6c0.552 0 1 0.447 1 1S13.552 28 13 28z" fill="#dedede" data-fill-palette-color="accent"></path></g></svg>
                                </g>
                            </g>
                            <mask id="f6ae8a10-f9c8-4a72-874e-598463dedba5">
                                <rect width="640" height="400" fill="white"></rect>
                                <g transform="matrix(1,0,0,1,39.55199999999999,90.13185216473073)">
                                    <svg viewBox="0 0 316.416 66.93629567053853"
                                        height="66.93629567053853" width="316.416">
                                        <g>
                                            <svg viewBox="0 0 316.416 66.93629567053853"
                                                height="66.93629567053853" width="316.416">
                                                <g>
                                                    <svg viewBox="0 0 316.416 66.93629567053853"
                                                        height="66.93629567053853" width="316.416">
                                                        <g>
                                                            <svg
                                                                viewBox="0 0 316.416 66.93629567053853"
                                                                height="66.93629567053853"
                                                                width="316.416">
                                                                <g id="SvgjsG1142">
                                                                    <svg
                                                                        viewBox="0 0 316.416 66.93629567053853"
                                                                        height="66.93629567053853"
                                                                        width="316.416"
                                                                        id="SvgjsSvg1141">
                                                                        <g>
                                                                            <svg
                                                                                viewBox="0 0 316.416 66.93629567053853"
                                                                                height="66.93629567053853"
                                                                                width="316.416">
                                                                                <g
                                                                                    transform="matrix(1,0,0,1,0,0)">
                                                                                    <svg
                                                                                        width="316.416"
                                                                                        viewBox="-2 -45 285.08 61.1"
                                                                                        height="66.93629567053853"
                                                                                        data-palette-color="#89939e">
                                                                                        <path
                                                                                            d="M6.1-3.85L6.1-32.95 2-33.65 2-37.15 18.85-37.15 18.85-33.65 14.65-32.95 14.65-3.8 18.85-3.25 18.85 0 2.05 0 2.05-3.3 6.1-3.85ZM25.75-3.75L25.75-22.55 22.8-23.45 22.8-27.35 31.9-28.45 32.05-28.45 33.35-27.4 33.35-25.55 33.3-24.4Q35.05-26.05 37.75-27.2 40.45-28.35 43.4-28.35L43.4-28.35Q46.4-28.35 48.12-27.28 49.85-26.2 50.62-23.85 51.4-21.5 51.4-17.45L51.4-17.45 51.4-3.75 54.2-3.35 54.2 0 40.6 0 40.6-3.3 43.05-3.75 43.05-17.4Q43.05-19.8 42.72-21.13 42.4-22.45 41.6-23.05 40.8-23.65 39.3-23.65L39.3-23.65Q37-23.65 34.1-21.5L34.1-21.5 34.1-3.75 36.85-3.3 36.85 0 23 0 23-3.3 25.75-3.75ZM85.7-14.8Q85.7-10.65 83.97-7.15 82.25-3.65 78.87-1.55 75.5 0.55 70.75 0.55L70.75 0.55Q69.95 0.55 69.02 0.4 68.1 0.25 67.6 0.05L67.6 0.05 67.75 4.1 67.75 8.35 72.05 9 72.05 12.1 56.7 12.1 56.7 9 59.75 8.35 59.75-22.55 56.7-23.45 56.7-27.35 65.65-28.45 65.75-28.45 67.1-27.4 67.1-24.7Q68.25-26.25 70.32-27.38 72.4-28.5 74.85-28.5L74.85-28.5Q79.65-28.5 82.67-25.13 85.7-21.75 85.7-14.8L85.7-14.8ZM71.9-23.9Q70.6-23.9 69.45-23.38 68.3-22.85 67.75-22.1L67.75-22.1 67.75-3.8Q68.1-3.35 68.97-3.05 69.85-2.75 70.9-2.75L70.9-2.75Q73.7-2.75 75.37-5.45 77.05-8.15 77.05-14.2L77.05-14.2Q77.05-19.1 75.65-21.5 74.25-23.9 71.9-23.9L71.9-23.9ZM112.04 0.5Q110.24 0.5 109.44-0.28 108.64-1.05 108.64-2.55L108.64-2.55 108.64-3.65Q107.44-2 105.04-0.73 102.64 0.55 100.19 0.55L100.19 0.55Q95.29 0.55 93.22-1.88 91.14-4.3 91.14-10L91.14-10 91.14-23.9 88.79-24.55 88.79-27.75 98.19-28.4 98.24-28.4 99.34-27.7 99.34-9.8Q99.34-6.55 100.14-5.28 100.94-4 102.99-4L102.99-4Q105.79-4 107.69-5.9L107.69-5.9 107.69-23.9 104.59-24.65 104.59-27.75 114.49-28.4 114.64-28.4 115.84-27.7 115.84-3.45 118.49-3.45 118.49-0.25Q116.79 0.1 115.37 0.3 113.94 0.5 112.04 0.5L112.04 0.5ZM130.14 0.45Q126.84 0.45 125.27-1.07 123.69-2.6 123.69-5.8L123.69-5.8 123.69-23.6 120.64-23.6 120.64-26.5 121.64-26.9Q122.84-27.3 123.74-27.75L123.74-27.75Q124.74-28.7 125.34-30.25L125.34-30.25Q126.09-32.05 126.99-35.3L126.99-35.3 131.64-35.3 131.94-27.8 139.09-27.8 139.09-23.6 132.04-23.6 132.04-10.35Q132.04-7.6 132.19-6.5 132.34-5.4 132.77-5.08 133.19-4.75 134.34-4.75L134.34-4.75Q136.69-4.75 138.79-5.55L138.79-5.55 139.84-2.4Q138.44-1.25 135.69-0.4 132.94 0.45 130.14 0.45L130.14 0.45ZM142.24 0L142.24-3.3 144.89-3.75 144.89-22.55 141.94-23.45 141.94-27.35 151.04-28.45 151.44-28.25 152.44-26.85 152.44-24.35Q154.04-26 157.14-27.18 160.24-28.35 162.44-28.35L162.44-28.35Q165.14-28.35 166.81-27.45 168.49-26.55 169.34-24.65L169.34-24.65Q171.04-26.25 173.61-27.3 176.19-28.35 178.84-28.35L178.84-28.35Q183.24-28.35 185.16-25.8 187.09-23.25 187.09-17.45L187.09-17.45 187.09-3.75 190.09-3.3 190.09 0 176.54 0 176.54-3.3 178.79-3.75 178.79-17.25Q178.79-20.85 177.96-22.25 177.14-23.65 174.94-23.65L174.94-23.65Q172.64-23.65 170.14-21.7L170.14-21.7Q170.44-19.85 170.44-17.45L170.44-17.45 170.44-3.75 173.24-3.3 173.24 0 159.59 0 159.59-3.3 162.09-3.75 162.09-17.4Q162.09-20.95 161.31-22.3 160.54-23.65 158.39-23.65L158.39-23.65Q156.99-23.65 155.61-23.03 154.24-22.4 153.24-21.5L153.24-21.5 153.24-3.75 155.94-3.3 155.94 0 142.24 0ZM192.59-8Q192.59-12.4 197.06-14.75 201.53-17.1 208.84-17.15L208.84-17.15 208.84-18.15Q208.84-19.95 208.44-21 208.03-22.05 206.99-22.58 205.94-23.1 203.88-23.1L203.88-23.1Q201.44-23.1 199.51-22.53 197.59-21.95 195.49-21L195.49-21 193.78-24.6Q194.59-25.25 196.38-26.18 198.19-27.1 200.71-27.78 203.24-28.45 205.99-28.45L205.99-28.45Q209.99-28.45 212.26-27.4 214.53-26.35 215.51-24.15 216.49-21.95 216.49-18.15L216.49-18.15 216.49-3.3 219.09-3.3 219.09-0.15Q217.94 0.1 215.88 0.35 213.84 0.6 212.38 0.6L212.38 0.6Q210.49 0.6 209.86 0.05 209.24-0.5 209.24-2.15L209.24-2.15 209.24-3.3Q207.99-1.8 205.88-0.63 203.78 0.55 201.03 0.55L201.03 0.55Q198.69 0.55 196.76-0.48 194.84-1.5 193.71-3.43 192.59-5.35 192.59-8L192.59-8ZM204.94-4.05Q205.84-4.05 206.94-4.58 208.03-5.1 208.84-5.85L208.84-5.85 208.84-13.8Q204.94-13.8 203.06-12.4 201.19-11 201.19-8.8L201.19-8.8Q201.19-6.55 202.19-5.3 203.19-4.05 204.94-4.05L204.94-4.05ZM226.78-8.1L228.03-4.15Q228.38-3.6 229.66-3.15 230.93-2.7 232.23-2.7L232.23-2.7Q234.28-2.7 235.36-3.58 236.43-4.45 236.43-5.85L236.43-5.85Q236.43-7.35 235.03-8.33 233.63-9.3 230.43-10.7L230.43-10.7 228.53-11.55Q225.28-13 223.66-15.08 222.03-17.15 222.03-20.35L222.03-20.35Q222.03-22.65 223.38-24.48 224.73-26.3 227.28-27.35 229.83-28.4 233.28-28.4L233.28-28.4Q235.68-28.4 237.43-28.1 239.18-27.8 240.98-27.35L240.98-27.35Q242.18-27 242.78-26.95L242.78-26.95 242.78-20.15 238.33-20.15 237.03-24Q236.78-24.45 235.83-24.83 234.88-25.2 233.68-25.2L233.68-25.2Q231.78-25.2 230.68-24.38 229.58-23.55 229.58-22.15L229.58-22.15Q229.58-20.55 230.83-19.63 232.08-18.7 234.83-17.45L234.83-17.45 235.88-17Q239.93-15.3 242.23-13.33 244.53-11.35 244.53-7.9L244.53-7.9Q244.53-4.2 241.58-1.83 238.63 0.55 232.88 0.55L232.88 0.55Q230.23 0.55 228.18 0.13 226.13-0.3 223.68-1L223.68-1 222.03-1.45 222.03-8.1 226.78-8.1ZM250.43-3.75L250.43-36.1 247.03-36.75 247.03-39.8 256.98-41 257.13-41 258.58-39.95 258.58-16.6 258.43-14.15 267.83-24.05 264.13-24.6 264.13-27.75 277.73-27.75 277.73-24.6 273.63-23.95 268.23-18.8 276.48-3.75 279.08-3.3 279.08 0 265.18 0 265.18-3.3 267.43-3.75 262.48-13.65 258.43-9.45 258.53-6.9 258.53-3.75 261.43-3.3 261.43 0 247.68 0 247.68-3.3 250.43-3.75Z"
                                                                                            opacity="1"
                                                                                            transform="matrix(1,0,0,1,0,0)"
                                                                                            fill="#89939e"
                                                                                            class="undefined-text-0"
                                                                                            data-fill-palette-color="primary"
                                                                                            id="SvgjsPath1140"
                                                                                            stroke-width="7"
                                                                                            stroke="black"
                                                                                            stroke-linejoin="round"></path>
                                                                                    </svg>
                                                                                </g>
                                                                            </svg>
                                                                        </g>
                                                                    </svg>
                                                                </g>
                                                            </svg>
                                                        </g>
                                                    </svg>
                                                </g>
                                            </svg>
                                        </g>
                                    </svg>
                                </g>
                            </mask>
                        </svg>
                    </g>
                    <defs></defs>
                </svg>
                <rect width="395.52" height="247.2" fill="none" stroke="none" visibility="hidden"></rect>
            </g>
        </svg>
    </g>
</svg>