<svg width="100" xmlns="http://www.w3.org/2000/svg" height="100" viewBox="0 0 416 416">
    <path
      id="head"
      fill="black"
      stroke="black"
      stroke-width="1"
      d="M 184.00,341.00
           C 171.13,339.51 166.91,322.99 172.51,316.14
             176.23,311.59 182.69,311.98 188.00,312.00
             188.00,312.00 204.00,313.00 204.00,313.00
             204.00,313.00 228.00,313.00 228.00,313.00
             233.19,313.03 237.09,313.23 240.26,318.04
             244.42,324.35 240.06,338.17 233.00,340.68
             227.80,342.53 227.12,335.63 221.96,334.47
             220.40,334.12 218.61,334.36 217.23,335.18
             210.83,338.98 216.81,346.55 214.77,350.91
             212.98,354.74 208.88,354.98 208.15,360.04
             207.83,362.28 208.02,365.28 210.31,366.40
             211.79,367.13 215.29,367.00 217.00,367.00
             217.00,367.00 239.00,367.00 239.00,367.00
             260.88,366.73 268.79,347.76 277.25,331.00
             277.25,331.00 284.54,319.00 284.54,319.00
             289.15,311.41 289.98,306.53 298.00,300.79
             304.90,295.85 315.63,294.10 324.00,294.00
             332.50,293.90 340.39,294.74 348.00,289.87
             356.12,284.66 360.57,273.82 363.66,265.00
             370.54,245.35 372.68,234.65 374.09,214.00
             374.09,214.00 374.85,206.00 374.85,206.00
             375.17,200.63 373.07,193.51 374.85,189.00
             375.72,186.34 379.52,181.73 381.30,179.00
             385.44,172.68 387.20,169.11 389.66,162.00
             394.52,147.95 394.12,141.15 395.09,127.00
             395.09,127.00 396.00,117.00 396.00,117.00
             396.31,89.68 379.16,55.66 347.00,61.46
             340.06,62.72 334.47,66.02 329.00,70.37
             325.46,73.18 322.08,77.66 317.00,76.26
             313.88,75.40 307.19,69.82 304.00,67.67
             296.51,62.63 285.09,55.99 277.00,51.97
             262.06,44.55 229.75,36.03 213.00,36.00
             213.00,36.00 195.00,36.00 195.00,36.00
             179.77,36.18 145.25,45.53 132.00,52.86
             132.00,52.86 110.00,65.35 110.00,65.35
             106.62,67.61 99.60,73.26 96.00,73.96
             90.67,75.00 86.75,69.37 83.00,66.38
             77.04,61.62 69.68,58.10 62.00,58.00
             40.81,57.73 30.19,69.28 22.60,88.00
             16.73,102.50 17.89,110.11 18.91,125.00
             19.87,139.05 19.78,146.21 24.69,160.00
             26.80,165.93 28.42,169.68 31.86,175.00
             33.59,177.67 37.39,182.31 38.12,185.00
             38.90,187.10 38.00,194.89 38.12,198.00
             37.96,222.31 40.11,238.84 48.00,262.00
             51.34,271.81 55.36,282.33 65.00,287.59
             71.48,291.12 77.92,290.99 85.00,291.00
             96.71,291.02 110.41,293.10 118.79,302.09
             122.82,306.41 124.87,311.91 127.64,317.00
             127.64,317.00 136.03,331.00 136.03,331.00
             142.35,343.62 147.87,357.90 162.00,363.80
             166.66,365.75 174.91,366.94 180.00,367.00
             183.32,367.04 198.65,367.39 200.69,366.40
             203.31,365.14 204.02,360.61 203.17,358.09
             201.99,354.54 197.67,352.77 196.81,349.00
             196.04,345.69 200.17,339.64 195.57,335.74
             190.58,331.50 185.54,335.82 184.00,341.00 Z
           M 79.00,135.00
           C 79.00,135.00 63.00,130.45 63.00,130.45
             60.74,129.91 58.38,129.46 56.60,131.40
             54.53,133.67 55.47,137.32 56.00,140.00
             56.00,140.00 61.15,162.00 61.15,162.00
             62.29,166.22 65.11,172.85 57.98,172.85
             47.48,172.84 37.41,156.72 34.06,148.00
             26.12,127.29 26.30,99.21 40.24,81.00
             43.40,76.87 47.27,72.99 52.00,70.68
             68.23,62.75 78.03,81.19 83.74,93.00
             85.47,96.58 89.89,105.10 88.39,108.85
             86.13,114.49 77.73,109.78 74.92,114.31
             72.03,118.98 80.44,126.94 79.00,135.00 Z
           M 334.00,137.00
           C 334.90,127.12 340.69,122.41 338.79,118.15
             336.03,111.91 325.05,118.79 325.16,109.00
             325.20,105.63 328.01,100.24 329.42,97.00
             333.93,86.63 340.90,71.99 354.00,72.03
             357.76,72.04 360.78,72.82 363.91,74.97
             366.12,76.48 368.12,78.79 369.99,80.72
             372.97,83.81 376.57,88.23 378.42,92.00
             387.93,109.46 386.88,137.48 378.42,155.00
             374.05,163.52 364.98,177.23 354.06,176.68
             348.48,176.40 350.76,170.37 351.71,167.00
             351.71,167.00 357.13,145.00 357.13,145.00
             357.80,142.31 359.33,137.84 357.79,135.31
             356.25,132.79 353.45,133.21 351.00,133.75
             344.14,135.27 341.56,136.83 334.00,137.00 Z
           M 168.00,132.00
           C 168.00,132.00 167.00,119.00 167.00,119.00
             175.87,120.24 178.70,126.83 184.28,132.96
             188.67,137.78 188.68,136.55 193.63,143.00
             196.68,146.99 201.24,153.80 207.00,153.51
             212.43,153.25 217.56,145.87 220.66,142.00
             220.66,142.00 240.01,121.65 240.01,121.65
             242.51,119.89 244.10,119.55 247.00,119.00
             247.00,119.00 245.00,133.00 245.00,133.00
             252.69,131.56 256.60,127.61 263.00,123.59
             265.17,122.23 269.25,119.48 271.85,119.65
             277.16,120.01 273.05,130.61 282.00,129.97
             285.58,129.71 295.92,125.93 300.00,124.72
             302.13,124.09 306.61,122.71 308.67,123.64
             314.56,126.28 302.56,135.56 305.81,139.43
             307.07,140.77 309.48,140.01 311.00,139.43
             315.98,138.02 316.50,136.71 322.00,138.00
             322.00,138.00 316.00,154.00 316.00,154.00
             323.75,153.93 331.63,151.00 339.00,154.00
             336.08,160.12 333.95,159.65 330.28,164.05
             329.36,165.14 328.14,166.64 329.00,168.11
             330.80,171.20 341.10,169.78 342.83,173.43
             345.32,178.69 332.28,183.13 334.25,188.97
             335.54,192.80 342.37,195.14 342.37,199.00
             342.37,203.66 332.98,205.95 333.62,210.00
             334.40,214.97 347.80,217.50 347.80,221.97
             347.80,224.25 344.73,225.34 343.00,225.96
             339.76,227.11 328.30,229.37 327.62,233.08
             327.08,236.00 336.64,238.79 339.00,240.00
             335.68,246.27 331.85,245.10 329.96,248.39
             328.13,251.57 331.77,254.64 331.46,257.94
             330.91,263.98 316.36,262.16 315.21,261.62
             311.35,259.28 314.91,252.56 315.21,245.00
             315.12,234.83 315.92,224.46 311.51,215.00
             303.95,198.75 288.14,188.47 271.00,185.00
             271.00,185.00 252.00,183.00 252.00,183.00
             252.00,183.00 255.00,173.00 255.00,173.00
             242.96,176.83 222.37,198.96 212.00,203.00
             212.00,203.00 207.00,175.00 207.00,175.00
             201.28,184.36 203.89,192.94 201.00,203.00
             192.86,199.00 180.74,187.86 173.00,181.72
             168.07,177.81 164.49,173.82 158.00,173.00
             158.00,173.00 160.00,180.00 160.00,180.00
             160.00,180.00 140.00,182.01 140.00,182.01
             123.93,185.49 109.51,196.74 101.58,211.00
             97.64,218.09 94.72,228.86 95.04,237.00
             95.04,237.00 98.68,255.89 98.68,255.89
             98.56,259.60 95.92,259.59 93.00,259.38
             89.11,259.10 81.17,259.67 81.53,253.96
             81.71,251.12 84.38,248.07 83.50,245.68
             82.31,242.48 76.49,241.57 75.17,238.78
             73.21,234.67 84.37,232.69 87.00,232.00
             82.91,224.27 71.52,224.13 64.00,219.00
             69.70,212.48 77.50,211.44 79.09,207.87
             81.32,202.87 71.85,201.52 70.74,196.92
             69.60,192.14 77.33,190.10 78.83,185.96
             80.62,181.04 72.63,177.67 69.00,170.00
             69.00,170.00 80.98,167.02 80.98,167.02
             80.98,167.02 84.38,164.69 84.38,164.69
             84.38,164.69 74.00,151.00 74.00,151.00
             74.00,151.00 98.00,151.00 98.00,151.00
             95.86,145.64 91.96,139.85 93.00,134.00
             99.44,135.74 103.26,139.03 110.00,138.00
             110.00,138.00 103.00,121.00 103.00,121.00
             112.04,121.20 114.84,123.22 123.00,126.00
             125.38,126.81 130.66,128.82 132.98,128.50
             140.72,127.46 135.25,117.03 143.02,118.55
             150.07,119.94 158.63,130.09 168.00,132.00 Z
           M 129.06,225.60
           C 131.47,225.10 134.43,224.57 136.39,226.60
             138.63,228.93 136.89,232.26 137.40,235.00
             139.00,243.61 150.22,241.98 151.85,242.39
             153.72,242.85 154.66,244.03 153.83,245.95
             151.99,250.24 146.68,250.06 143.00,248.91
             132.36,245.57 118.19,232.27 129.06,225.60 Z
           M 279.06,226.52
           C 285.39,226.42 289.72,230.54 287.15,237.00
             285.25,241.77 279.56,246.51 275.00,248.67
             271.46,250.36 265.90,251.89 262.11,250.26
             258.43,248.68 256.69,243.59 264.00,243.59
             267.95,243.60 271.81,243.43 274.40,239.86
             278.25,234.54 271.50,229.69 279.06,226.52 Z
           M 103.05,268.54
           C 111.65,268.77 116.37,281.13 104.01,279.89
             96.07,279.09 96.39,271.20 103.05,268.54 Z
           M 300.00,281.00
           C 300.67,278.72 301.17,277.09 302.48,275.04
             303.57,273.33 305.05,271.45 307.09,270.84
             313.36,268.97 318.96,281.29 309.98,282.73
             308.75,282.96 307.23,282.87 306.00,282.73
             303.89,282.41 301.99,281.73 300.00,281.00 Z"
    />
    <path
      id="eyes"
      fill="#02ffff"
      stroke="black"
      stroke-width="1"
      d="M 128.10,226.02
           C 123.66,230.00 124.94,233.45 128.10,238.00
             131.76,243.40 144.05,252.38 150.94,248.81
             152.69,247.91 155.60,244.92 153.95,242.84
             152.22,240.66 146.58,244.06 141.11,240.84
             132.19,235.60 143.51,224.56 132.00,225.08
             129.95,225.17 129.91,225.39 128.10,226.02 Z
           M 274.00,228.00
           C 275.30,233.76 278.00,239.21 270.98,242.57
             265.50,245.19 258.63,241.27 258.63,246.13
             258.63,251.65 266.46,251.17 270.00,250.24
             277.25,248.32 284.37,243.26 287.00,236.00
             289.95,227.86 282.28,224.58 274.00,228.00 Z"
    />
    <defs>
      <filter
        id="color-glow"
        filterUnits="userSpaceOnUse"
        x="-50%"
        y="-50%"
        width="200%"
        height="200%"
      >
        <!-- blur the text at different levels-->
        <feGaussianBlur in="SourceGraphic" stdDeviation="2" result="blur2" />
        <feGaussianBlur in="SourceGraphic" stdDeviation="5" result="blur5" />
        <feGaussianBlur in="SourceGraphic" stdDeviation="10" result="blur10" />
        <feGaussianBlur in="SourceGraphic" stdDeviation="20" result="blur20" />
        <feGaussianBlur in="SourceGraphic" stdDeviation="30" result="blur30" />
        <feGaussianBlur in="SourceGraphic" stdDeviation="50" result="blur50" />
        <!-- merge all the blurs except for the first one -->
        <feMerge result="blur-merged">
          <feMergeNode in="blur10" />
          <feMergeNode in="blur20" />
          <feMergeNode in="blur30" />
          <feMergeNode in="blur50" />
        </feMerge>
        <!-- recolour the merged blurs red-->
        <feColorMatrix
          result="color-blur"
          in="blur-merged"
          type="matrix"
          values="1 0 0 0 0
                             0 0.06 0 0 0
                             0 0 0.44 0 0
                             0 0 0 1 0"
        />
        <feMerge>
          <feMergeNode in="color-blur" />
          <feMergeNode in="blur5" />
          <feMergeNode in="SourceGraphic" />
        </feMerge>
      </filter>
    </defs>
  </svg>